HIERARCHY
ROOT Hips
{
    OFFSET 0.000000 0.000000 0.000000
    CHANNELS 6 Xposition Yposition Zposition Zrotation Xrotation Yrotation
    JOINT Spine
    {
        OFFSET -0.000000 14.517291 0.000000
        CHANNELS 3 Zrotation Xrotation Yrotation
        JOINT Spine1
        {
            OFFSET -0.000000 37.558300 0.000000
            CHANNELS 3 Zrotation Xrotation Yrotation
            JOINT Neck
            {
                OFFSET -0.000000 37.404057 3.400369
                CHANNELS 3 Zrotation Xrotation Yrotation
                JOINT Head
                {
                    OFFSET -0.000000 24.785618 -3.540803
                    CHANNELS 3 Zrotation Xrotation Yrotation
                    End Site
                    {
                        OFFSET -0.000000 35.408028 0.000000
                    }
                }
            }
            JOINT LeftShoulder
            {
                OFFSET 6.992933 33.973492 -0.192664
                CHANNELS 3 Zrotation Xrotation Yrotation
                JOINT LeftArm
                {
                    OFFSET 21.527611 0.000000 0.000000
                    CHANNELS 3 Zrotation Xrotation Yrotation
                    JOINT LeftForeArm
                    {
                        OFFSET 56.353916 0.000000 0.000000
                        CHANNELS 3 Zrotation Xrotation Yrotation
                        JOINT LeftHand
                        {
                            OFFSET 47.774071 0.000000 0.000000
                            CHANNELS 3 Zrotation Xrotation Yrotation
                            End Site
                            {
                                OFFSET 26.556021 0.000000 0.000000
                            }
                        }
                    }
                }
            }
            JOINT RightShoulder
            {
                OFFSET -7.065357 33.973492 -0.192664
                CHANNELS 3 Zrotation Xrotation Yrotation
                JOINT RightArm
                {
                    OFFSET -21.527611 0.000000 0.000000
                    CHANNELS 3 Zrotation Xrotation Yrotation
                    JOINT RightForeArm
                    {
                        OFFSET -56.353916 0.000000 0.000000
                        CHANNELS 3 Zrotation Xrotation Yrotation
                        JOINT RightHand
                        {
                            OFFSET -47.774071 0.000000 0.000000
                            CHANNELS 3 Zrotation Xrotation Yrotation
                            End Site
                            {
                                OFFSET -26.556021 0.000000 0.000000
                            }
                        }
                    }
                }
            }
        }
    }
    JOINT LeftUpLeg
    {
        OFFSET 17.704014 0.000000 0.000000
        CHANNELS 3 Zrotation Xrotation Yrotation
        JOINT LeftLeg
        {
            OFFSET -0.000000 -81.181816 0.000000
            CHANNELS 3 Zrotation Xrotation Yrotation
            JOINT LeftFoot
            {
                OFFSET -0.000000 -62.821102 0.000000
                CHANNELS 3 Zrotation Xrotation Yrotation
                JOINT LeftToeBase
                {
                    OFFSET -0.000000 -11.507608 26.556021
                    CHANNELS 3 Zrotation Xrotation Yrotation
                    End Site
                    {
                        OFFSET -0.000000 0.000000 7.081605
                    }
                }
            }
        }
    }
    JOINT RightUpLeg
    {
        OFFSET -17.704014 0.000000 0.000000
        CHANNELS 3 Zrotation Xrotation Yrotation
        JOINT RightLeg
        {
            OFFSET -0.000000 -81.181816 0.000000
            CHANNELS 3 Zrotation Xrotation Yrotation
            JOINT RightFoot
            {
                OFFSET -0.000000 -62.821102 0.000000
                CHANNELS 3 Zrotation Xrotation Yrotation
                JOINT RightToeBase
                {
                    OFFSET -0.000000 -11.507608 26.556021
                    CHANNELS 3 Zrotation Xrotation Yrotation
                    End Site
                    {
                        OFFSET -0.000000 0.000000 7.081605
                    }
                }
            }
        }
    }
}
MOTION
Frames:    13
Frame Time:    0.008333
15.812906    154.936417    -107.514511    0.262177    -9.288770    46.262527    -3.656423    2.064394    -2.744568    -1.984818    3.616853    -0.874058    1.764166    7.057499    -18.755852    19.036892    -0.507142    -16.983610    4.961702    9.847022    -20.626902    -20.540844    34.330040    -36.702946    -26.558266    -2.621608    -24.676582    -9.031669    -6.721060    -22.578190    -0.852410    6.054546    -5.371252    31.722244    -12.567175    50.173397    -26.155317    -14.366176    64.038658    -12.487569    -1.955718    37.039871    19.797548    -5.170201    -1.913884    -15.448823    39.530018    -17.689236    7.259551    -27.380562    42.611958    0.000000    0.000000    0.000000    -17.838676    -13.946117    -14.673171    13.727090    32.327068    -15.973715    12.444968    3.527128    -20.734020    0.000000    0.000000    0.000000    
15.808012    154.933975    -107.512352    0.259465    -9.300231    46.253220    -3.667029    2.053899    -2.750691    -1.984780    3.623895    -0.875976    1.776817    7.055022    -18.756880    19.016596    -0.497229    -16.990355    4.960810    9.833469    -20.649536    -20.525610    34.216438    -36.847736    -26.506529    -2.715866    -24.600338    -9.003650    -6.786153    -22.622271    -0.860670    6.045803    -5.372406    31.737236    -12.552537    50.181213    -26.146807    -14.338003    64.063065    -12.505596    -1.930199    37.038704    19.809587    -5.163724    -1.906637    -15.445404    39.537727    -17.699562    7.262196    -27.383421    42.617355    0.000000    0.000000    0.000000    -17.832222    -13.958919    -14.622231    13.756637    32.343227    -15.992481    12.456432    3.533880    -20.759253    0.000000    0.000000    0.000000    
15.799581    154.932983    -107.508759    0.259661    -9.317982    46.251514    -3.678441    2.053918    -2.764460    -1.985668    3.628629    -0.880486    1.786030    7.049380    -18.759232    19.015320    -0.476151    -16.997395    4.960043    9.824099    -20.656696    -20.485849    34.106300    -37.029415    -26.437464    -2.808205    -24.537266    -9.115680    -6.826877    -22.590940    -0.865378    6.045655    -5.363962    31.757961    -12.544931    50.182865    -26.143909    -14.321970    64.088623    -12.506531    -1.911918    37.076115    19.824358    -5.157284    -1.904702    -15.439302    39.551872    -17.700701    7.256249    -27.394007    42.613361    0.000000    0.000000    0.000000    -17.821100    -13.961514    -14.607574    13.764443    32.362900    -16.002274    12.470837    3.547077    -20.769602    0.000000    0.000000    0.000000    
15.793673    154.931870    -107.505775    0.255362    -9.332000    46.244331    -3.694197    2.048307    -2.770110    -1.975162    3.629375    -0.882742    1.783926    7.045620    -18.762035    19.021189    -0.457185    -17.002501    4.989875    9.894397    -20.612471    -20.379074    33.898701    -37.352139    -26.450285    -2.847275    -24.430958    -8.999610    -6.859067    -22.672775    -0.880141    6.049997    -5.374310    31.765051    -12.507414    50.189945    -26.153542    -14.329685    64.095383    -12.526315    -1.920360    37.096115    19.841194    -5.155477    -1.897378    -15.438746    39.565723    -17.698362    7.239356    -27.408260    42.600815    0.000000    0.000000    0.000000    -17.814152    -13.966277    -14.580891    13.789158    32.373760    -16.000839    12.481080    3.554915    -20.798470    0.000000    0.000000    0.000000    
15.784905    154.933426    -107.499405    0.254744    -9.354097    46.237015    -3.702952    2.047837    -2.777735    -1.975654    3.641637    -0.885111    1.788891    7.027984    -18.759237    19.015738    -0.438086    -17.004204    4.976602    9.845375    -20.658121    -20.402935    33.719963    -37.467133    -26.488777    -2.892277    -24.353870    -9.043469    -6.887565    -22.639843    -0.882697    6.044580    -5.372574    31.773109    -12.497347    50.190170    -26.133385    -14.319760    64.124550    -12.492600    -1.906192    37.124695    19.861191    -5.143371    -1.891816    -15.439208    39.574280    -17.689493    7.243105    -27.401461    42.596413    0.000000    0.000000    0.000000    -17.800724    -13.961768    -14.562299    13.808660    32.381195    -16.019678    12.509358    3.564188    -20.805021    0.000000    0.000000    0.000000    
15.777081    154.932175    -107.489685    0.250045    -9.376971    46.229740    -3.714988    2.050799    -2.784539    -1.959601    3.639640    -0.887985    1.791901    7.041854    -18.763634    19.003201    -0.452373    -17.008320    4.964581    9.835232    -20.676601    -20.409126    33.554729    -37.616985    -26.465702    -2.949238    -24.360685    -9.066080    -6.937151    -22.626978    -0.899169    6.054383    -5.376248    31.787010    -12.489814    50.192272    -26.118813    -14.301724    64.148582    -12.483203    -1.889450    37.151318    19.889544    -5.133673    -1.886099    -15.451052    39.584034    -17.673437    7.243828    -27.409365    42.591293    0.000000    0.000000    0.000000    -17.781767    -13.957711    -14.558717    13.808975    32.398922    -16.005501    12.517181    3.571444    -20.793070    0.000000    0.000000    0.000000    
15.773493    154.932175    -107.480331    0.247709    -9.401138    46.231415    -3.718342    2.045166    -2.792056    -1.961503    3.651539    -0.890224    1.772583    7.048926    -18.764866    19.049107    -0.453716    -17.001038    4.966182    9.842068    -20.697712    -20.433968    33.283810    -37.820091    -26.503479    -2.986572    -24.240278    -9.059058    -6.950309    -22.681227    -0.893046    6.058033    -5.375988    31.748348    -12.448590    50.170212    -26.150846    -14.331849    64.138931    -12.466927    -1.898658    37.168705    19.909180    -5.125694    -1.883326    -15.437696    39.602406    -17.680090    7.234718    -27.416130    42.584942    0.000000    0.000000    0.000000    -17.768541    -13.941422    -14.581789    13.810848    32.403461    -15.990029    12.514447    3.592106    -20.788908    0.000000    0.000000    0.000000    
15.766643    154.929535    -107.469154    0.242175    -9.422073    46.228638    -3.719960    2.031065    -2.799830    -1.977564    3.669896    -0.891833    1.797383    7.058836    -18.760220    19.043650    -0.469459    -16.996319    4.989846    9.843233    -20.712193    -20.449450    32.966179    -38.043968    -26.644119    -2.996085    -24.155733    -9.012216    -6.977741    -22.709673    -0.879513    6.072848    -5.364228    31.745825    -12.474049    50.160950    -26.132177    -14.295170    64.155952    -12.504616    -1.876821    37.138420    19.934792    -5.120370    -1.883078    -15.441318    39.618900    -17.688673    7.227796    -27.433172    42.588470    0.000000    0.000000    0.000000    -17.750772    -13.937943    -14.618553    13.793807    32.427818    -15.979480    12.522912    3.603888    -20.750547    0.000000    0.000000    0.000000    
15.756209    154.925293    -107.464622    0.230145    -9.433472    46.223518    -3.728152    2.018442    -2.803500    -1.976542    3.666955    -0.893090    1.787576    7.064280    -18.756580    19.059156    -0.460079    -16.990883    4.997056    9.855144    -20.731043    -20.454100    32.742451    -38.257851    -26.627195    -3.092330    -24.189226    -9.112577    -7.060283    -22.678310    -0.875830    6.087464    -5.352997    31.628119    -12.345240    50.118507    -26.252972    -14.448071    64.057350    -12.449008    -1.970963    37.172001    19.955978    -5.130917    -1.888104    -15.448254    39.639828    -17.678051    7.237148    -27.437437    42.588806    0.000000    0.000000    0.000000    -17.743546    -13.942533    -14.633425    13.804305    32.435978    -16.001394    12.517385    3.619854    -20.713890    0.000000    0.000000    0.000000    
15.753616    154.921860    -107.455650    0.229977    -9.457732    46.223537    -3.737944    2.020665    -2.803990    -1.964570    3.670501    -0.893636    1.788935    7.056444    -18.757259    19.041634    -0.449437    -16.996094    4.994845    9.856604    -20.748917    -20.422688    32.556393    -38.507275    -26.622902    -3.184689    -24.276720    -9.083574    -7.177483    -22.690187    -0.884011    6.091032    -5.344669    31.611929    -12.344105    50.089272    -26.251404    -14.442736    64.058334    -12.438519    -1.962033    37.166874    19.975819    -5.119045    -1.892350    -15.447470    39.650513    -17.658445    7.227808    -27.450411    42.564491    0.000000    0.000000    0.000000    -17.733189    -13.928881    -14.671583    13.796944    32.455647    -15.993341    12.533272    3.634471    -20.685217    0.000000    0.000000    0.000000    
15.749201    154.918015    -107.449432    0.224160    -9.472034    46.223850    -3.738915    2.003569    -2.805339    -1.975376    3.686227    -0.893348    1.780944    7.080071    -18.754932    19.071333    -0.474584    -16.984165    5.010269    9.854063    -20.762293    -20.374031    32.370232    -38.782993    -26.667469    -3.364686    -24.447618    -8.999937    -7.430497    -22.626303    -0.879734    6.092300    -5.336597    31.584143    -12.346113    50.058594    -26.232676    -14.438795    64.061531    -12.406096    -1.960227    37.180420    19.990376    -5.123924    -1.902996    -15.449800    39.671227    -17.658304    7.246787    -27.447582    42.576401    0.000000    0.000000    0.000000    -17.728420    -13.929906    -14.698681    13.799052    32.475113    -16.005980    12.538873    3.651321    -20.650604    0.000000    0.000000    0.000000    
15.742932    154.914047    -107.441757    0.219742    -9.487149    46.229073    -3.748314    1.992407    -2.803496    -1.972773    3.694893    -0.892576    1.785338    7.071187    -18.758526    19.051804    -0.455552    -16.994413    5.011361    9.835597    -20.788198    -20.328760    32.207680    -39.053894    -26.635494    -3.469414    -24.616467    -9.134074    -7.540967    -22.639734    -0.880486    6.084041    -5.326616    31.577429    -12.363310    50.020821    -26.201977    -14.417070    64.070351    -12.404369    -1.960287    37.225773    20.006996    -5.127172    -1.921863    -15.459998    39.684601    -17.642439    7.252079    -27.451910    42.581097    0.000000    0.000000    0.000000    -17.725626    -13.927122    -14.735631    13.799866    32.497337    -15.987986    12.548407    3.662198    -20.640635    0.000000    0.000000    0.000000    
15.735297    154.910721    -107.436501    0.218602    -9.501811    46.227989    -3.754660    1.987708    -2.793575    -1.975477    3.698558    -0.889078    1.770284    7.083996    -18.766081    19.074156    -0.453663    -16.997993    5.009624    9.814951    -20.800554    -20.262850    32.000237    -39.348675    -26.704231    -3.596356    -24.868538    -9.154051    -7.748282    -22.552540    -0.885909    6.085330    -5.324305    31.554060    -12.349944    49.976929    -26.232004    -14.430248    64.086029    -12.305771    -1.905843    37.149315    20.022552    -5.125397    -1.938101    -15.474644    39.698345    -17.639957    7.250449    -27.464977    42.599030    0.000000    0.000000    0.000000    -17.723269    -13.915415    -14.607628    13.906854    32.463654    -16.128151    12.542829    3.657901    -20.649532    0.000000    0.000000    0.000000    
